<svg width="992" height="296" viewBox="0 0 992 296" xmlns="http://www.w3.org/2000/svg"><mask id="satori_om-id"><rect x="0" y="0" width="992" height="296" fill="#fff"/></mask><rect x="0" y="0" width="992" height="296" fill="#16161a"/><mask id="satori_om-id-0"><rect x="42" y="42" width="113" height="16" fill="#fff"/></mask><mask id="satori_om-id-0-0"><rect x="42" y="42" width="16" height="16" fill="#fff"/></mask><rect x="42" y="42" width="16" height="16" fill="#2cb67d"/><mask id="satori_om-id-0-1"><rect x="66" y="43" width="89" height="14" fill="#fff"/></mask><path fill="#2cb67d" d="M68.5 54.6L66.8 54.6L66.8 45.9L68.6 45.9L68.6 49.2L68.6 49.2Q68.7 48.9 69.0 48.6Q69.2 48.4 69.6 48.2Q69.9 48.0 70.5 48.0L70.5 48.0Q71.2 48.0 71.8 48.4Q72.4 48.7 72.8 49.5Q73.1 50.2 73.1 51.4L73.1 51.4Q73.1 52.5 72.8 53.2Q72.4 54.0 71.8 54.3Q71.2 54.7 70.5 54.7L70.5 54.7Q70.0 54.7 69.6 54.6Q69.2 54.4 69.0 54.1Q68.8 53.8 68.6 53.6L68.6 53.6L68.5 53.6L68.5 54.6ZM68.5 51.4L68.5 51.4Q68.5 51.9 68.7 52.4Q68.9 52.8 69.2 53.0Q69.5 53.3 69.9 53.3L69.9 53.3Q70.4 53.3 70.7 53.0Q71.0 52.8 71.1 52.4Q71.3 51.9 71.3 51.4L71.3 51.4Q71.3 50.8 71.1 50.4Q71.0 49.9 70.7 49.7Q70.4 49.4 69.9 49.4L69.9 49.4Q69.5 49.4 69.2 49.7Q68.9 49.9 68.7 50.3Q68.5 50.8 68.5 51.4ZM75.9 54.7L75.9 54.7Q75.3 54.7 74.8 54.5Q74.3 54.3 74.0 53.9Q73.7 53.4 73.7 52.8L73.7 52.8Q73.7 52.3 73.9 51.9Q74.1 51.5 74.5 51.3Q74.8 51.1 75.3 50.9Q75.7 50.8 76.2 50.8L76.2 50.8Q76.8 50.7 77.1 50.7Q77.4 50.6 77.6 50.5Q77.8 50.4 77.8 50.2L77.8 50.2L77.8 50.2Q77.8 49.8 77.5 49.5Q77.3 49.3 76.8 49.3L76.8 49.3Q76.3 49.3 76.0 49.5Q75.7 49.8 75.6 50.1L75.6 50.1L74.0 49.9Q74.1 49.3 74.5 48.9Q74.8 48.5 75.4 48.2Q76.0 48.0 76.8 48.0L76.8 48.0Q77.3 48.0 77.8 48.1Q78.3 48.3 78.7 48.5Q79.1 48.8 79.4 49.2Q79.6 49.6 79.6 50.2L79.6 50.2L79.6 54.6L77.9 54.6L77.9 53.7L77.8 53.7Q77.7 54.0 77.4 54.3Q77.1 54.5 76.8 54.6Q76.4 54.7 75.9 54.7ZM76.4 53.5L76.4 53.5Q76.8 53.5 77.1 53.3Q77.4 53.2 77.6 52.9Q77.8 52.6 77.8 52.3L77.8 52.3L77.8 51.6Q77.7 51.6 77.5 51.7Q77.4 51.7 77.2 51.8Q77.0 51.8 76.8 51.8Q76.7 51.9 76.5 51.9L76.5 51.9Q76.2 51.9 76.0 52.0Q75.7 52.1 75.6 52.3Q75.5 52.5 75.5 52.7L75.5 52.7Q75.5 53.1 75.7 53.3Q76.0 53.5 76.4 53.5ZM82.5 54.6L80.7 54.6L80.7 48.1L82.4 48.1L82.4 49.2L82.5 49.2Q82.7 48.6 83.1 48.3Q83.5 48.0 84.1 48.0L84.1 48.0Q84.2 48.0 84.4 48.0Q84.5 48.0 84.6 48.0L84.6 48.0L84.6 49.7Q84.5 49.6 84.3 49.6Q84.1 49.6 83.9 49.6L83.9 49.6Q83.5 49.6 83.2 49.7Q82.8 49.9 82.7 50.2Q82.5 50.5 82.5 50.9L82.5 50.9L82.5 54.6ZM87.1 54.6L85.3 54.6L85.3 48.1L87.1 48.1L87.1 54.6ZM86.2 47.2L86.2 47.2Q85.8 47.2 85.5 47.0Q85.2 46.7 85.2 46.3L85.2 46.3Q85.2 45.9 85.5 45.7Q85.8 45.4 86.2 45.4L86.2 45.4Q86.6 45.4 86.9 45.7Q87.1 45.9 87.1 46.3L87.1 46.3Q87.1 46.7 86.9 47.0Q86.6 47.2 86.2 47.2ZM93.6 49.9L93.6 49.9L92.0 50.0Q91.9 49.8 91.8 49.7Q91.7 49.5 91.4 49.4Q91.2 49.3 90.9 49.3L90.9 49.3Q90.5 49.3 90.2 49.5Q89.9 49.6 89.9 49.9L89.9 49.9Q89.9 50.2 90.1 50.3Q90.3 50.5 90.7 50.6L90.7 50.6L91.9 50.8Q92.9 51.0 93.3 51.5Q93.8 51.9 93.8 52.6L93.8 52.6Q93.8 53.2 93.4 53.7Q93.0 54.2 92.4 54.5Q91.7 54.8 90.9 54.8L90.9 54.8Q89.6 54.8 88.8 54.2Q88.0 53.7 87.9 52.7L87.9 52.7L89.7 52.6Q89.8 53.0 90.1 53.2Q90.4 53.4 90.9 53.4L90.9 53.4Q91.4 53.4 91.7 53.3Q91.9 53.1 92.0 52.8L92.0 52.8Q91.9 52.5 91.7 52.4Q91.5 52.2 91.1 52.1L91.1 52.1L90.0 51.9Q89.0 51.7 88.6 51.2Q88.1 50.8 88.1 50.0L88.1 50.0Q88.1 49.4 88.4 48.9Q88.8 48.5 89.4 48.2Q90.0 48.0 90.9 48.0L90.9 48.0Q92.1 48.0 92.8 48.5Q93.5 49.0 93.6 49.9ZM97.6 54.8L97.6 54.8Q96.6 54.8 95.9 54.3Q95.1 53.9 94.7 53.2Q94.4 52.4 94.4 51.4L94.4 51.4Q94.4 50.4 94.7 49.6Q95.1 48.8 95.9 48.4Q96.6 48.0 97.5 48.0L97.5 48.0Q98.2 48.0 98.7 48.2Q99.3 48.4 99.7 48.8Q100.1 49.2 100.4 49.9Q100.6 50.5 100.6 51.3L100.6 51.3L100.6 51.8L95.1 51.8L95.1 50.7L98.9 50.7Q98.9 50.3 98.7 50.0Q98.6 49.7 98.3 49.5Q98.0 49.3 97.6 49.3L97.6 49.3Q97.1 49.3 96.8 49.5Q96.5 49.7 96.3 50.0Q96.2 50.4 96.2 50.8L96.2 50.8L96.2 51.8Q96.2 52.3 96.3 52.7Q96.5 53.0 96.8 53.2Q97.2 53.4 97.6 53.4L97.6 53.4Q97.9 53.4 98.2 53.3Q98.4 53.2 98.6 53.1Q98.8 52.9 98.9 52.6L98.9 52.6L100.6 52.8Q100.4 53.4 100.0 53.8Q99.7 54.3 99.0 54.5Q98.4 54.8 97.6 54.8ZM103.3 54.6L101.5 54.6L101.5 48.1L103.2 48.1L103.2 49.2L103.3 49.2Q103.5 48.7 104.0 48.3Q104.4 48.0 105.1 48.0L105.1 48.0Q105.8 48.0 106.3 48.3Q106.7 48.7 106.9 49.2L106.9 49.2L106.9 49.2Q107.1 48.7 107.7 48.3Q108.2 48.0 108.9 48.0L108.9 48.0Q109.8 48.0 110.4 48.6Q111.0 49.2 111.0 50.2L111.0 50.2L111.0 54.6L109.2 54.6L109.2 50.6Q109.2 50.0 108.9 49.8Q108.6 49.5 108.2 49.5L108.2 49.5Q107.7 49.5 107.4 49.8Q107.1 50.1 107.1 50.6L107.1 50.6L107.1 54.6L105.4 54.6L105.4 50.5Q105.4 50.1 105.1 49.8Q104.8 49.5 104.4 49.5L104.4 49.5Q104.1 49.5 103.8 49.6Q103.6 49.8 103.4 50.1Q103.3 50.3 103.3 50.7L103.3 50.7L103.3 54.6ZM113.9 54.6L112.1 54.6L112.1 48.1L113.9 48.1L113.9 49.2L113.9 49.2Q114.1 48.6 114.5 48.3Q114.9 48.0 115.5 48.0L115.5 48.0Q115.6 48.0 115.8 48.0Q115.9 48.0 116.1 48.0L116.1 48.0L116.1 49.7Q115.9 49.6 115.7 49.6Q115.5 49.6 115.3 49.6L115.3 49.6Q114.9 49.6 114.6 49.7Q114.3 49.9 114.1 50.2Q113.9 50.5 113.9 50.9L113.9 50.9L113.9 54.6ZM119.4 54.8L119.4 54.8Q118.3 54.8 117.6 54.3Q116.9 53.9 116.5 53.2Q116.1 52.4 116.1 51.4L116.1 51.4Q116.1 50.4 116.5 49.6Q116.9 48.8 117.6 48.4Q118.3 48.0 119.3 48.0L119.3 48.0Q119.9 48.0 120.5 48.2Q121.1 48.4 121.5 48.8Q121.9 49.2 122.1 49.9Q122.4 50.5 122.4 51.3L122.4 51.3L122.4 51.8L116.8 51.8L116.8 50.7L120.7 50.7Q120.7 50.3 120.5 50.0Q120.3 49.7 120.0 49.5Q119.7 49.3 119.3 49.3L119.3 49.3Q118.9 49.3 118.6 49.5Q118.3 49.7 118.1 50.0Q117.9 50.4 117.9 50.8L117.9 50.8L117.9 51.8Q117.9 52.3 118.1 52.7Q118.3 53.0 118.6 53.2Q118.9 53.4 119.4 53.4L119.4 53.4Q119.7 53.4 119.9 53.3Q120.2 53.2 120.4 53.1Q120.6 52.9 120.6 52.6L120.6 52.6L122.3 52.8Q122.2 53.4 121.8 53.8Q121.4 54.3 120.8 54.5Q120.2 54.8 119.4 54.8ZM125.0 50.8L125.0 50.8L125.0 54.6L123.2 54.6L123.2 48.1L125.0 48.1L125.0 49.2L125.0 49.2Q125.3 48.7 125.8 48.3Q126.3 48.0 127.0 48.0L127.0 48.0Q127.7 48.0 128.2 48.3Q128.7 48.6 129.0 49.1Q129.3 49.7 129.3 50.5L129.3 50.5L129.3 54.6L127.4 54.6L127.4 50.8Q127.4 50.2 127.1 49.8Q126.8 49.5 126.3 49.5L126.3 49.5Q125.9 49.5 125.6 49.7Q125.4 49.8 125.2 50.1Q125.0 50.4 125.0 50.8ZM131.4 54.7L131.4 54.7Q131.0 54.7 130.7 54.4Q130.4 54.1 130.4 53.7L130.4 53.7Q130.4 53.3 130.7 53.0Q131.0 52.7 131.4 52.7L131.4 52.7Q131.8 52.7 132.1 53.0Q132.5 53.3 132.5 53.7L132.5 53.7Q132.5 54.0 132.3 54.2Q132.2 54.5 131.9 54.6Q131.7 54.7 131.4 54.7ZM136.0 54.7L136.0 54.7Q135.3 54.7 134.7 54.3Q134.1 54.0 133.7 53.2Q133.4 52.5 133.4 51.4L133.4 51.4Q133.4 50.2 133.7 49.5Q134.1 48.7 134.7 48.4Q135.3 48.0 136.0 48.0L136.0 48.0Q136.6 48.0 136.9 48.2Q137.3 48.4 137.5 48.6Q137.8 48.9 137.9 49.2L137.9 49.2L137.9 49.2L137.9 45.9L139.8 45.9L139.8 54.6L138.0 54.6L138.0 53.6L137.9 53.6Q137.8 53.8 137.5 54.1Q137.3 54.4 136.9 54.6Q136.6 54.7 136.0 54.7ZM136.6 53.3L136.6 53.3Q137.0 53.3 137.4 53.0Q137.7 52.8 137.8 52.4Q138.0 51.9 138.0 51.4L138.0 51.4Q138.0 50.8 137.8 50.3Q137.7 49.9 137.4 49.7Q137.0 49.4 136.6 49.4L136.6 49.4Q136.2 49.4 135.9 49.7Q135.5 49.9 135.4 50.4Q135.2 50.8 135.2 51.4L135.2 51.4Q135.2 51.9 135.4 52.4Q135.5 52.8 135.9 53.0Q136.2 53.3 136.6 53.3ZM143.9 54.8L143.9 54.8Q142.9 54.8 142.2 54.3Q141.4 53.9 141.1 53.2Q140.7 52.4 140.7 51.4L140.7 51.4Q140.7 50.4 141.1 49.6Q141.4 48.8 142.2 48.4Q142.9 48.0 143.8 48.0L143.8 48.0Q144.5 48.0 145.0 48.2Q145.6 48.4 146.0 48.8Q146.4 49.2 146.7 49.9Q146.9 50.5 146.9 51.3L146.9 51.3L146.9 51.8L141.4 51.8L141.4 50.7L145.2 50.7Q145.2 50.3 145.0 50.0Q144.9 49.7 144.6 49.5Q144.3 49.3 143.9 49.3L143.9 49.3Q143.4 49.3 143.1 49.5Q142.8 49.7 142.6 50.0Q142.5 50.4 142.5 50.8L142.5 50.8L142.5 51.8Q142.5 52.3 142.6 52.7Q142.8 53.0 143.1 53.2Q143.5 53.4 143.9 53.4L143.9 53.4Q144.2 53.4 144.5 53.3Q144.7 53.2 144.9 53.1Q145.1 52.9 145.2 52.6L145.2 52.6L146.9 52.8Q146.7 53.4 146.3 53.8Q146.0 54.3 145.3 54.5Q144.7 54.8 143.9 54.8ZM151.8 48.1L153.7 48.1L151.4 54.6L149.4 54.6L147.1 48.1L149.0 48.1L150.3 52.8L150.4 52.8L151.8 48.1Z "/><mask id="satori_om-id-1"><rect x="386" y="117" width="221" height="62" fill="#fff"/></mask><path x="386" y="117" width="221" height="62" fill="#6246ea" d="M394,117 h205 a8,8 0 0 1 8,8 v46 a8,8 0 0 1 -8,8 h-205 a8,8 0 0 1 -8,-8 v-46 a8,8 0 0 1 8,-8"/><path fill="#fffffe" d="M426.5 158.4L417.8 158.4L417.8 138.0L425.9 138.0Q428.2 138.0 429.7 138.7Q431.2 139.4 431.9 140.5Q432.7 141.7 432.7 143.2L432.7 143.2Q432.7 144.4 432.2 145.3Q431.7 146.2 430.9 146.8Q430.1 147.4 429.0 147.6L429.0 147.6L429.0 147.8Q430.2 147.9 431.2 148.5Q432.2 149.1 432.8 150.2Q433.5 151.3 433.5 152.8L433.5 152.8Q433.5 154.4 432.7 155.6Q431.9 156.9 430.3 157.6Q428.8 158.4 426.5 158.4L426.5 158.4ZM422.1 149.5L422.1 154.9L425.6 154.9Q427.4 154.9 428.2 154.2Q429.0 153.5 429.0 152.3L429.0 152.3Q429.0 151.5 428.6 150.8Q428.2 150.2 427.5 149.8Q426.7 149.5 425.7 149.5L425.7 149.5L422.1 149.5ZM422.1 141.5L422.1 146.5L425.3 146.5Q426.2 146.5 426.8 146.2Q427.5 145.9 427.9 145.3Q428.3 144.8 428.3 144.0L428.3 144.0Q428.3 142.9 427.6 142.2Q426.8 141.5 425.3 141.5L425.3 141.5L422.1 141.5ZM440.2 158.7L440.2 158.7Q438.8 158.7 437.6 158.2Q436.5 157.6 435.8 156.6Q435.2 155.6 435.2 154.1L435.2 154.1Q435.2 152.8 435.6 152.0Q436.1 151.1 436.9 150.6Q437.7 150.1 438.7 149.8Q439.8 149.5 440.9 149.4L440.9 149.4Q442.2 149.3 443.0 149.1Q443.9 149.0 444.2 148.8Q444.6 148.5 444.6 148.0L444.6 148.0L444.6 148.0Q444.6 147.0 444.0 146.5Q443.4 146.0 442.3 146.0L442.3 146.0Q441.2 146.0 440.5 146.5Q439.8 147.0 439.6 147.8L439.6 147.8L435.7 147.4Q436.0 146.1 436.9 145.0Q437.7 144.0 439.1 143.5Q440.5 142.9 442.3 142.9L442.3 142.9Q443.6 142.9 444.8 143.2Q446.0 143.5 446.9 144.1Q447.8 144.8 448.3 145.7Q448.8 146.7 448.8 148.1L448.8 148.1L448.8 158.4L444.8 158.4L444.8 156.3L444.7 156.3Q444.3 157.0 443.7 157.5Q443.1 158.1 442.2 158.4Q441.4 158.7 440.2 158.7ZM441.4 155.7L441.4 155.7Q442.4 155.7 443.1 155.4Q443.8 155.0 444.2 154.4Q444.6 153.7 444.6 152.9L444.6 152.9L444.6 151.3Q444.4 151.4 444.1 151.5Q443.7 151.6 443.3 151.7Q442.9 151.8 442.5 151.9Q442.0 151.9 441.7 152.0L441.7 152.0Q440.9 152.1 440.4 152.3Q439.8 152.6 439.5 153.0Q439.2 153.4 439.2 154.0L439.2 154.0Q439.2 154.8 439.8 155.3Q440.5 155.7 441.4 155.7ZM456.0 158.4L451.8 158.4L451.8 143.1L455.9 143.1L455.9 145.8L456.1 145.8Q456.5 144.4 457.5 143.6Q458.5 142.9 459.7 142.9L459.7 142.9Q460.1 142.9 460.4 142.9Q460.8 143.0 461.1 143.0L461.1 143.0L461.1 146.8Q460.8 146.7 460.2 146.6Q459.7 146.6 459.3 146.6L459.3 146.6Q458.3 146.6 457.6 147.0Q456.9 147.4 456.5 148.1Q456.0 148.8 456.0 149.7L456.0 149.7L456.0 158.4ZM467.2 158.4L462.9 158.4L462.9 143.1L467.2 143.1L467.2 158.4ZM482.9 147.5L482.9 147.5L479.1 147.7Q479.0 147.2 478.6 146.8Q478.3 146.4 477.8 146.2Q477.2 145.9 476.5 145.9L476.5 145.9Q475.5 145.9 474.8 146.3Q474.2 146.7 474.2 147.4L474.2 147.4Q474.2 148.0 474.6 148.3Q475.0 148.7 476.1 149.0L476.1 149.0L478.9 149.5Q481.1 150.0 482.2 151.0Q483.3 152.0 483.3 153.6L483.3 153.6Q483.3 155.2 482.4 156.3Q481.5 157.4 480.0 158.0Q478.5 158.7 476.5 158.7L476.5 158.7Q473.4 158.7 471.6 157.4Q469.9 156.1 469.5 154.0L469.5 154.0L473.7 153.7Q473.9 154.7 474.6 155.1Q475.4 155.6 476.5 155.6L476.5 155.6Q477.6 155.6 478.3 155.2Q479.0 154.8 479.0 154.1L479.0 154.1Q479.0 153.5 478.5 153.1Q478.0 152.8 477.0 152.6L477.0 152.6L474.4 152.0Q472.1 151.6 471.0 150.5Q470.0 149.4 470.0 147.7L470.0 147.7Q470.0 146.2 470.8 145.1Q471.6 144.1 473.0 143.5Q474.5 142.9 476.4 142.9L476.4 142.9Q479.3 142.9 481.0 144.1Q482.7 145.4 482.9 147.5ZM475.1 160.3L475.6 158.3L477.5 158.3L477.3 159.2Q478.4 159.3 479.0 159.9Q479.7 160.5 479.7 161.6L479.7 161.6Q479.7 163.1 478.3 163.9Q476.9 164.8 474.4 164.8L474.4 164.8L474.4 162.9Q475.6 162.9 476.4 162.6Q477.1 162.3 477.1 161.7L477.1 161.7Q477.1 161.1 476.6 160.8Q476.1 160.4 475.1 160.3L475.1 160.3Z M505.6 158.4L491.9 158.4L491.9 138.0L505.6 138.0L505.6 141.6L496.2 141.6L496.2 146.4L504.9 146.4L504.9 150.0L496.2 150.0L496.2 154.8L505.6 154.8L505.6 158.4ZM512.9 158.4L508.6 158.4L508.6 143.1L512.7 143.1L512.7 145.8L512.9 145.8Q513.3 144.5 514.4 143.7Q515.6 142.9 517.1 142.9L517.1 142.9Q518.7 142.9 519.8 143.7Q520.9 144.5 521.3 145.8L521.3 145.8L521.4 145.8Q521.9 144.5 523.1 143.7Q524.3 142.9 526.0 142.9L526.0 142.9Q528.2 142.9 529.5 144.3Q530.8 145.6 530.8 148.1L530.8 148.1L530.8 158.4L526.6 158.4L526.6 148.9Q526.6 147.7 525.9 147.0Q525.3 146.4 524.2 146.4L524.2 146.4Q523.1 146.4 522.4 147.1Q521.8 147.9 521.8 149.1L521.8 149.1L521.8 158.4L517.7 158.4L517.7 148.9Q517.7 147.7 517.0 147.1Q516.4 146.4 515.4 146.4L515.4 146.4Q514.7 146.4 514.1 146.8Q513.5 147.1 513.2 147.7Q512.9 148.4 512.9 149.2L512.9 149.2L512.9 158.4ZM538.1 158.4L533.9 158.4L533.9 143.1L538.0 143.1L538.0 145.8L538.1 145.8Q538.5 144.4 539.5 143.6Q540.5 142.9 541.8 142.9L541.8 142.9Q542.1 142.9 542.5 142.9Q542.8 143.0 543.1 143.0L543.1 143.0L543.1 146.8Q542.8 146.7 542.3 146.6Q541.8 146.6 541.3 146.6L541.3 146.6Q540.4 146.6 539.7 147.0Q538.9 147.4 538.5 148.1Q538.1 148.8 538.1 149.7L538.1 149.7L538.1 158.4ZM551.2 158.7L551.2 158.7Q548.9 158.7 547.2 157.7Q545.5 156.8 544.6 155.0Q543.6 153.2 543.6 150.8L543.6 150.8Q543.6 148.5 544.6 146.7Q545.5 144.9 547.1 143.9Q548.8 142.9 551.1 142.9L551.1 142.9Q552.6 142.9 553.9 143.4Q555.2 143.9 556.2 144.8Q557.1 145.8 557.7 147.3Q558.2 148.7 558.2 150.7L558.2 150.7L558.2 151.8L545.3 151.8L545.3 149.2L554.2 149.2Q554.2 148.3 553.8 147.6Q553.4 146.9 552.7 146.5Q552.0 146.1 551.1 146.1L551.1 146.1Q550.2 146.1 549.4 146.5Q548.7 147.0 548.3 147.7Q547.8 148.4 547.8 149.3L547.8 149.3L547.8 151.8Q547.8 153.0 548.3 153.8Q548.7 154.6 549.5 155.1Q550.2 155.5 551.3 155.5L551.3 155.5Q552.0 155.5 552.6 155.3Q553.2 155.1 553.6 154.7Q554.0 154.3 554.2 153.7L554.2 153.7L558.1 154.0Q557.8 155.4 556.9 156.5Q556.0 157.5 554.6 158.1Q553.1 158.7 551.2 158.7ZM564.9 149.6L564.9 149.6L564.9 158.4L560.7 158.4L560.7 143.1L564.7 143.1L564.7 145.8L564.9 145.8Q565.4 144.5 566.6 143.7Q567.8 142.9 569.5 142.9L569.5 142.9Q571.1 142.9 572.3 143.6Q573.4 144.3 574.1 145.6Q574.8 146.9 574.8 148.7L574.8 148.7L574.8 158.4L570.5 158.4L570.5 149.4Q570.5 148.0 569.8 147.2Q569.1 146.4 567.8 146.4L567.8 146.4Q566.9 146.4 566.3 146.8Q565.6 147.2 565.3 147.9Q564.9 148.6 564.9 149.6Z "/></svg>